<mxfile host="app.diagrams.net" modified="2024-03-23T20:55:55.442Z" agent="Mozilla/5.0 (Windows NT 10.0; Win64; x64) AppleWebKit/537.36 (KHTML, like Gecko) Chrome/121.0.0.0 Safari/537.36 OPR/107.0.0.0" etag="dKwr7IbOa3u99VR-SXgE" version="24.1.0" type="device">
  <diagram name="Página-1" id="J3GoRXatVNuQCjQ85K-w">
    <mxGraphModel dx="1315" dy="1772" grid="1" gridSize="10" guides="1" tooltips="1" connect="1" arrows="1" fold="1" page="1" pageScale="1" pageWidth="827" pageHeight="1169" math="0" shadow="0">
      <root>
        <mxCell id="0" />
        <mxCell id="1" parent="0" />
        <mxCell id="zPc8XnV_2cIllz_aIQcA-1" style="edgeStyle=orthogonalEdgeStyle;rounded=0;orthogonalLoop=1;jettySize=auto;html=1;exitX=0.5;exitY=1;exitDx=0;exitDy=0;entryX=0.5;entryY=0;entryDx=0;entryDy=0;" edge="1" parent="1" target="l5W33SdDHzaijy03sMYO-12">
          <mxGeometry relative="1" as="geometry">
            <mxPoint x="390" y="-750" as="sourcePoint" />
          </mxGeometry>
        </mxCell>
        <mxCell id="zPc8XnV_2cIllz_aIQcA-2" style="edgeStyle=orthogonalEdgeStyle;rounded=0;orthogonalLoop=1;jettySize=auto;html=1;exitX=0.5;exitY=1;exitDx=0;exitDy=0;" edge="1" parent="1" target="l5W33SdDHzaijy03sMYO-7">
          <mxGeometry relative="1" as="geometry">
            <mxPoint x="390" y="-750" as="sourcePoint" />
          </mxGeometry>
        </mxCell>
        <mxCell id="zPc8XnV_2cIllz_aIQcA-7" style="edgeStyle=orthogonalEdgeStyle;rounded=0;orthogonalLoop=1;jettySize=auto;html=1;exitX=0.5;exitY=1;exitDx=0;exitDy=0;entryX=0.5;entryY=0;entryDx=0;entryDy=0;" edge="1" parent="1" source="zPc8XnV_2cIllz_aIQcA-3" target="zPc8XnV_2cIllz_aIQcA-4">
          <mxGeometry relative="1" as="geometry">
            <mxPoint x="385" y="-410" as="targetPoint" />
          </mxGeometry>
        </mxCell>
        <mxCell id="zPc8XnV_2cIllz_aIQcA-8" style="edgeStyle=orthogonalEdgeStyle;rounded=0;orthogonalLoop=1;jettySize=auto;html=1;exitX=0.5;exitY=1;exitDx=0;exitDy=0;" edge="1" parent="1" source="zPc8XnV_2cIllz_aIQcA-3" target="zPc8XnV_2cIllz_aIQcA-5">
          <mxGeometry relative="1" as="geometry" />
        </mxCell>
        <mxCell id="zPc8XnV_2cIllz_aIQcA-3" value="&lt;p style=&quot;margin:0px;margin-top:4px;text-align:center;&quot;&gt;&lt;i&gt;&amp;lt;&amp;lt;Abstract&amp;gt;&amp;gt;&lt;/i&gt;&lt;br&gt;&lt;b&gt;VEÍCULO&lt;/b&gt;&lt;/p&gt;&lt;hr size=&quot;1&quot; style=&quot;border-style:solid;&quot;&gt;&lt;p style=&quot;margin:0px;margin-left:4px;&quot;&gt;ANO;&lt;br&gt;MODELO;&lt;/p&gt;&lt;p style=&quot;margin:0px;margin-left:4px;&quot;&gt;CATEGORIA;&lt;/p&gt;&lt;p style=&quot;margin:0px;margin-left:4px;&quot;&gt;COMBUSTIVEL;&lt;/p&gt;&lt;p style=&quot;margin:0px;margin-left:4px;&quot;&gt;TRANSMISSÃO&lt;/p&gt;&lt;hr size=&quot;1&quot; style=&quot;border-style:solid;&quot;&gt;&lt;p style=&quot;margin:0px;margin-left:4px;&quot;&gt;GETTERS();&lt;/p&gt;&lt;p style=&quot;margin:0px;margin-left:4px;&quot;&gt;SETTERS();&lt;/p&gt;&lt;p style=&quot;margin:0px;margin-left:4px;&quot;&gt;&lt;br&gt;&lt;/p&gt;&lt;p style=&quot;margin:0px;margin-left:4px;&quot;&gt;ABSTRACT calcularPrecoAluguel();&lt;/p&gt;&lt;p style=&quot;margin:0px;margin-left:4px;&quot;&gt;ABSTRACT calcularPrecoSeguro();&lt;br&gt;&lt;/p&gt;" style="verticalAlign=top;align=left;overflow=fill;html=1;whiteSpace=wrap;" vertex="1" parent="1">
          <mxGeometry x="100" y="-820" width="200" height="210" as="geometry" />
        </mxCell>
        <mxCell id="zPc8XnV_2cIllz_aIQcA-4" value="&lt;p style=&quot;margin:0px;margin-top:4px;text-align:center;&quot;&gt;&lt;i&gt;&amp;lt;&amp;lt;CLASSE&amp;gt;&amp;gt;&lt;/i&gt;&lt;br&gt;&lt;b&gt;CARRO&lt;/b&gt;&lt;/p&gt;&lt;hr size=&quot;1&quot; style=&quot;border-style:solid;&quot;&gt;&lt;p style=&quot;margin:0px;margin-left:4px;&quot;&gt;ASSENTOS;&lt;/p&gt;&lt;p style=&quot;margin:0px;margin-left:4px;&quot;&gt;MOTOR;&lt;/p&gt;&lt;hr size=&quot;1&quot; style=&quot;border-style:solid;&quot;&gt;&lt;p style=&quot;margin:0px;margin-left:4px;&quot;&gt;GETTERS();&lt;/p&gt;&lt;p style=&quot;margin:0px;margin-left:4px;&quot;&gt;SETTERS();&lt;/p&gt;&lt;p style=&quot;margin:0px;margin-left:4px;&quot;&gt;&lt;br&gt;&lt;/p&gt;&lt;p style=&quot;margin: 0px 0px 0px 4px;&quot;&gt;PUBLIC calcularPrecoAluguel();&lt;/p&gt;&lt;p style=&quot;margin: 0px 0px 0px 4px;&quot;&gt;PUBLIC calcularPrecoSeguro();&lt;/p&gt;" style="verticalAlign=top;align=left;overflow=fill;html=1;whiteSpace=wrap;" vertex="1" parent="1">
          <mxGeometry x="10" y="-500" width="210" height="170" as="geometry" />
        </mxCell>
        <mxCell id="zPc8XnV_2cIllz_aIQcA-5" value="&lt;p style=&quot;margin:0px;margin-top:4px;text-align:center;&quot;&gt;&lt;i&gt;&amp;lt;&amp;lt;CLASSE&amp;gt;&amp;gt;&lt;/i&gt;&lt;br&gt;&lt;b&gt;MOTO&lt;/b&gt;&lt;/p&gt;&lt;hr size=&quot;1&quot; style=&quot;border-style:solid;&quot;&gt;&lt;p style=&quot;margin:0px;margin-left:4px;&quot;&gt;&lt;span style=&quot;background-color: initial;&quot;&gt;CILINDADRADAS_DO_MOTOR;&lt;/span&gt;&lt;br&gt;&lt;/p&gt;&lt;hr size=&quot;1&quot; style=&quot;border-style:solid;&quot;&gt;&lt;p style=&quot;margin:0px;margin-left:4px;&quot;&gt;GETTERS();&lt;/p&gt;&lt;p style=&quot;margin:0px;margin-left:4px;&quot;&gt;SETTERS();&lt;/p&gt;&lt;p style=&quot;margin:0px;margin-left:4px;&quot;&gt;&lt;br&gt;&lt;/p&gt;&lt;p style=&quot;margin: 0px 0px 0px 4px;&quot;&gt;PUBLIC calcularPrecoAluguel();&lt;/p&gt;&lt;p style=&quot;margin: 0px 0px 0px 4px;&quot;&gt;PUBLIC calcularPrecoSeguro();&lt;/p&gt;" style="verticalAlign=top;align=left;overflow=fill;html=1;whiteSpace=wrap;" vertex="1" parent="1">
          <mxGeometry x="240" y="-500" width="210" height="170" as="geometry" />
        </mxCell>
        <mxCell id="zPc8XnV_2cIllz_aIQcA-16" value="&lt;br&gt;GERENCIAMENTO_DE_VEICULOS" style="swimlane;fontStyle=0;childLayout=stackLayout;horizontal=1;startSize=26;fillColor=none;horizontalStack=0;resizeParent=1;resizeParentMax=0;resizeLast=0;collapsible=1;marginBottom=0;whiteSpace=wrap;html=1;" vertex="1" parent="1">
          <mxGeometry x="280" y="-990" width="290" height="70" as="geometry" />
        </mxCell>
        <mxCell id="zPc8XnV_2cIllz_aIQcA-17" value="MÉTODO MAIN();" style="text;strokeColor=none;fillColor=none;align=left;verticalAlign=top;spacingLeft=4;spacingRight=4;overflow=hidden;rotatable=0;points=[[0,0.5],[1,0.5]];portConstraint=eastwest;whiteSpace=wrap;html=1;" vertex="1" parent="zPc8XnV_2cIllz_aIQcA-16">
          <mxGeometry y="26" width="290" height="44" as="geometry" />
        </mxCell>
        <mxCell id="zPc8XnV_2cIllz_aIQcA-22" style="edgeStyle=orthogonalEdgeStyle;rounded=0;orthogonalLoop=1;jettySize=auto;html=1;exitX=0.5;exitY=1;exitDx=0;exitDy=0;entryX=0.5;entryY=0;entryDx=0;entryDy=0;" edge="1" parent="1" source="zPc8XnV_2cIllz_aIQcA-20" target="zPc8XnV_2cIllz_aIQcA-21">
          <mxGeometry relative="1" as="geometry" />
        </mxCell>
        <mxCell id="zPc8XnV_2cIllz_aIQcA-20" value="&lt;p style=&quot;margin:0px;margin-top:4px;text-align:center;&quot;&gt;&lt;i&gt;&amp;lt;&amp;lt;Interface&amp;gt;&amp;gt;&lt;/i&gt;&lt;br&gt;&lt;b&gt;Configurações&lt;/b&gt;&lt;/p&gt;&lt;hr size=&quot;1&quot; style=&quot;border-style:solid;&quot;&gt;&lt;p style=&quot;margin:0px;margin-left:4px;&quot;&gt;+Adicionar veiculo();&lt;br&gt;+ Remover veiculo();&lt;/p&gt;&lt;p style=&quot;margin:0px;margin-left:4px;&quot;&gt;+Listar veículos();&lt;/p&gt;&lt;p style=&quot;margin:0px;margin-left:4px;&quot;&gt;+Calcular aluguel e seguro();&lt;/p&gt;" style="verticalAlign=top;align=left;overflow=fill;html=1;whiteSpace=wrap;" vertex="1" parent="1">
          <mxGeometry x="580" y="-830" width="190" height="110" as="geometry" />
        </mxCell>
        <mxCell id="zPc8XnV_2cIllz_aIQcA-21" value="&lt;p style=&quot;margin:0px;margin-top:4px;text-align:center;&quot;&gt;&lt;b&gt;SERVICE&lt;/b&gt;&lt;/p&gt;&lt;hr size=&quot;1&quot; style=&quot;border-style:solid;&quot;&gt;&lt;p style=&quot;margin: 0px 0px 0px 4px;&quot;&gt;+Adicionar veiculo();&lt;br&gt;+ Remover veiculo();&lt;/p&gt;&lt;p style=&quot;margin: 0px 0px 0px 4px;&quot;&gt;+Listar veículos();&lt;/p&gt;&lt;p style=&quot;margin: 0px 0px 0px 4px;&quot;&gt;+Calcular aluguel e seguro();&lt;/p&gt;" style="verticalAlign=top;align=left;overflow=fill;html=1;whiteSpace=wrap;" vertex="1" parent="1">
          <mxGeometry x="595" y="-656" width="160" height="90" as="geometry" />
        </mxCell>
        <mxCell id="zPc8XnV_2cIllz_aIQcA-26" style="edgeStyle=orthogonalEdgeStyle;rounded=0;orthogonalLoop=1;jettySize=auto;html=1;exitX=0;exitY=0.5;exitDx=0;exitDy=0;entryX=0.5;entryY=0;entryDx=0;entryDy=0;" edge="1" parent="1" source="zPc8XnV_2cIllz_aIQcA-17" target="zPc8XnV_2cIllz_aIQcA-3">
          <mxGeometry relative="1" as="geometry" />
        </mxCell>
        <mxCell id="zPc8XnV_2cIllz_aIQcA-27" style="edgeStyle=orthogonalEdgeStyle;rounded=0;orthogonalLoop=1;jettySize=auto;html=1;exitX=1;exitY=0.5;exitDx=0;exitDy=0;" edge="1" parent="1" source="zPc8XnV_2cIllz_aIQcA-17" target="zPc8XnV_2cIllz_aIQcA-20">
          <mxGeometry relative="1" as="geometry" />
        </mxCell>
      </root>
    </mxGraphModel>
  </diagram>
</mxfile>
